<svg version="1.0" xmlns="http://www.w3.org/2000/svg" width="80.000000pt" height="28.000000pt"
    viewBox="0 0 900.000000 282.000000" preserveAspectRatio="xMidYMid meet">
    <g transform="translate(0.000000,282.000000) scale(0.100000,-0.100000)" fill="#292a60"
        stroke="none">
        <path
            d="M3795 2590 c-14 -23 17 -39 78 -42 l62 -3 3 -219 c3 -237 8 -264 50 -237 11 6 13 54 12 218 0 115 2 217 6 226 5 13 19 17 59 17 66 0 85 7 85 31 0 18 -10 19 -174 19 -111 0 -177 -4 -181 -10z" />
        <path
            d="M4237 2593 c-4 -3 -7 -115 -7 -248 0 -203 2 -245 15 -255 8 -7 22 -10 30 -6 12 4 15 25 15 105 0 131 0 131 136 131 147 0 144 2 144 -126 0 -84 3 -106 15 -110 8 -4 22 -1 30 6 13 11 15 50 13 259 l-3 246 -25 0 c-25 0 -25 -1 -30 -110 l-5 -110 -129 -3 c-97 -2 -131 1 -138 10 -4 7 -8 59 -8 116 0 100 0 102 -23 102 -13 0 -27 -3 -30 -7z" />
        <path
            d="M4762 2343 l3 -258 124 -3 c128 -3 164 6 140 34 -8 10 -37 14 -98 14 -54 0 -92 5 -99 12 -7 7 -12 41 -12 85 0 87 9 95 104 92 67 -2 86 4 86 26 0 18 -26 24 -115 27 l-70 3 0 85 0 85 92 3 c64 2 95 7 103 17 24 29 0 35 -131 35 l-129 0 2 -257z" />
        <path
            d="M1890 2470 c-44 -28 22 -30 835 -30 455 0 830 2 833 4 2 3 2 12 -1 21 -6 13 -97 15 -829 15 -498 0 -829 -4 -838 -10z" />
        <path
            d="M5293 2473 c-7 -2 -13 -11 -13 -19 0 -12 125 -14 827 -16 642 -2 830 0 842 9 14 11 14 14 1 23 -15 10 -1632 14 -1657 3z" />
        <path
            d="M1034 2289 c-3 -6 0 -15 7 -20 8 -5 562 -8 1264 -6 1181 2 1250 3 1253 20 3 16 -62 17 -1257 17 -913 0 -1262 -3 -1267 -11z" />
        <path
            d="M5274 2289 c-3 -6 -2 -15 3 -20 5 -5 515 -8 1268 -7 1191 3 1260 4 1263 21 3 16 -62 17 -1262 17 -900 0 -1267 -3 -1272 -11z" />
        <path
            d="M180 2135 c0 -13 191 -15 1693 -13 1119 2 1692 6 1692 13 0 7 -573 11 -1692 13 -1502 2 -1693 0 -1693 -13z" />
        <path
            d="M5277 2144 c-4 -4 -4 -11 -1 -15 3 -5 762 -9 1695 -9 1495 0 1689 2 1689 15 0 13 -194 15 -1688 15 -929 0 -1692 -3 -1695 -6z" />
        <path
            d="M3050 1520 c-7 -12 -9 -125 -8 -322 l3 -303 30 0 30 0 3 309 c2 312 0 336 -34 336 -7 0 -18 -9 -24 -20z" />
        <path
            d="M2577 1492 c-5 -7 -10 -466 -7 -589 0 -10 29 -13 110 -13 89 0 118 4 148 19 121 62 138 214 33 292 -34 25 -39 44 -16 53 47 18 70 123 39 176 -31 51 -68 64 -190 68 -65 3 -114 0 -117 -6z m233 -92 c29 -41 21 -89 -22 -125 -27 -23 -38 -26 -92 -23 l-61 3 -3 74 c-2 41 -1 80 2 88 4 9 27 13 80 13 72 0 75 -1 96 -30z m-10 -235 c33 -17 60 -61 60 -97 0 -36 -37 -88 -75 -104 -42 -17 -126 -19 -143 -2 -17 17 -16 200 1 217 15 16 115 8 157 -14z" />
        <path
            d="M4498 1494 c-5 -4 -8 -142 -8 -306 l0 -299 28 3 27 3 3 103 c2 70 7 104 15 106 7 2 48 9 92 16 93 14 146 48 176 114 38 85 18 172 -55 231 -37 29 -42 30 -154 33 -65 2 -120 0 -124 -4z m247 -96 c24 -29 27 -38 23 -95 -4 -70 -24 -97 -81 -114 -45 -13 -111 -11 -125 3 -13 13 -18 219 -5 231 3 4 41 7 84 7 75 0 78 -1 104 -32z" />
        <path
            d="M5818 1429 c-12 -7 -18 -22 -18 -48 0 -36 -2 -39 -34 -45 -51 -10 -61 -56 -13 -56 42 0 45 -9 48 -173 l4 -159 33 -29 c40 -36 114 -42 131 -11 13 24 -4 42 -39 42 -54 0 -61 22 -58 181 l3 144 49 5 c27 3 51 10 53 16 7 21 -29 46 -57 41 -38 -8 -48 3 -52 53 -3 47 -18 59 -50 39z" />
        <path
            d="M3399 1331 c-58 -12 -112 -45 -144 -90 -27 -38 -29 -48 -30 -130 0 -84 2 -92 30 -133 43 -60 96 -88 168 -88 72 0 123 24 168 82 34 42 34 44 34 143 0 99 -1 102 -33 142 -44 56 -125 87 -193 74z m89 -70 c54 -28 72 -65 72 -151 0 -110 -41 -160 -132 -160 -86 0 -138 59 -138 159 0 76 24 122 78 151 47 24 74 25 120 1z" />
        <path
            d="M3850 1324 c-121 -41 -177 -221 -108 -346 53 -97 183 -116 270 -41 23 20 32 1 24 -52 -10 -63 -43 -106 -99 -129 -42 -18 -52 -19 -90 -7 -23 7 -57 15 -75 18 -32 5 -33 4 -30 -23 2 -23 11 -30 53 -45 64 -22 100 -23 161 -3 57 19 98 54 125 106 17 34 19 61 19 282 0 207 -2 245 -15 250 -23 8 -45 -4 -45 -25 0 -24 -4 -24 -54 0 -61 29 -86 32 -136 15z m116 -61 c97 -47 101 -240 6 -295 -41 -25 -103 -23 -136 3 -83 66 -70 240 23 289 45 24 61 24 107 3z" />
        <path
            d="M5037 1323 c-60 -20 -119 -76 -135 -129 -48 -160 41 -304 188 -304 133 0 210 82 210 225 0 120 -40 180 -139 209 -65 19 -63 19 -124 -1z m120 -62 c104 -48 113 -236 15 -293 -63 -37 -160 -13 -193 48 -21 40 -19 163 4 197 19 29 81 66 112 66 11 0 39 -8 62 -18z" />
        <path
            d="M5497 1323 c-55 -19 -107 -71 -107 -109 0 -50 31 -83 120 -128 72 -36 85 -47 88 -70 2 -17 -4 -36 -15 -48 -15 -17 -27 -19 -83 -15 -36 3 -74 7 -85 9 -14 2 -21 -3 -23 -19 -8 -53 137 -73 213 -30 45 26 65 57 65 106 0 27 -9 42 -40 73 -23 21 -48 38 -56 38 -25 0 -93 39 -104 60 -16 30 -4 54 35 76 32 17 37 17 86 1 57 -18 69 -15 69 12 0 44 -90 68 -163 44z" />
        <path
            d="M6144 1321 c-76 -25 -98 -50 -98 -112 0 -46 4 -54 32 -78 18 -14 54 -35 80 -45 87 -35 115 -82 73 -120 -19 -17 -55 -18 -161 -4 -21 2 -25 -1 -25 -22 0 -33 36 -50 108 -50 98 0 167 53 167 128 0 45 -33 78 -121 119 -58 27 -81 43 -85 60 -9 34 1 51 41 70 33 16 40 16 79 2 49 -18 66 -15 66 12 0 44 -82 65 -156 40z" />
        <path
            d="M184 589 c-3 -6 -2 -15 3 -20 5 -5 1694 -8 4239 -7 3751 3 4229 5 4229 18 0 13 -478 15 -4232 18 -3042 1 -4234 -1 -4239 -9z" />
        <path
            d="M1041 417 c-6 -8 -8 -17 -4 -20 3 -4 1529 -7 3390 -7 3218 0 3384 1 3381 17 -3 17 -173 18 -3379 21 -2817 2 -3378 0 -3388 -11z" />
        <path
            d="M1880 242 c0 -32 5 -32 2540 -32 2535 0 2540 0 2540 32 0 4 -1143 8 -2540 8 -1397 0 -2540 -4 -2540 -8z" />
    </g>
</svg> 